<svg xmlns="http://www.w3.org/2000/svg" viewBox="0 0 32 32" fill="none">
  <path d="M16 2 L28 8 L28 18 C28 24 22 29 16 31 C10 29 4 24 4 18 L4 8 Z"
        stroke="#a0b4c8" stroke-width="1.5" fill="rgba(160,180,200,0.1)"/>
  <path d="M16 6 L24 10 L24 17 C24 22 20 26 16 28 C12 26 8 22 8 17 L8 10 Z"
        stroke="#a0b4c8" stroke-width="1" fill="none" opacity="0.6"/>
  <path d="M16 10 C16.8 10 17.5 13 17.5 16 L17.5 24 C17.5 24.8 17 25.5 16 26 C15 25.5 14.5 24.8 14.5 24 L14.5 16 C14.5 13 15.2 10 16 10Z"
        fill="#a0b4c8" opacity="0.8"/>
</svg>
